<svg width="609" height="48" viewBox="0 0 609 48" fill="none" xmlns="http://www.w3.org/2000/svg">
<path d="M0 36.8608V0.4972H12.287C15.14 0.4972 17.472 1.0121 19.283 2.0419C21.106 3.0599 22.455 4.4388 23.331 6.1788C24.207 7.9188 24.645 9.8608 24.645 12.0028C24.645 14.1458 24.207 16.0928 23.331 17.8448C22.467 19.5968 21.13 20.9928 19.319 22.0348C17.507 23.0648 15.187 23.5798 12.358 23.5798H3.552V19.6728H12.216C14.169 19.6728 15.738 19.3358 16.922 18.6608C18.105 17.9868 18.963 17.0748 19.496 15.9268C20.041 14.7668 20.313 13.4588 20.313 12.0028C20.313 10.5468 20.041 9.2448 19.496 8.0968C18.963 6.9488 18.0991 6.0488 16.9041 5.3978C15.7081 4.7348 14.122 4.4038 12.145 4.4038H4.40405V36.8608H0ZM41.957 37.4288C39.495 37.4288 37.335 36.8428 35.476 35.6708C33.63 34.4988 32.186 32.8598 31.144 30.7528C30.114 28.6458 29.599 26.1838 29.599 23.3668C29.599 20.5258 30.114 18.0458 31.144 15.9268C32.186 13.8078 33.63 12.1628 35.476 10.9908C37.335 9.8188 39.495 9.2328 41.957 9.2328C44.419 9.2328 46.574 9.8188 48.42 10.9908C50.279 12.1628 51.7231 13.8078 52.7531 15.9268C53.7941 18.0458 54.315 20.5258 54.315 23.3668C54.315 26.1838 53.7941 28.6458 52.7531 30.7528C51.7231 32.8598 50.279 34.4988 48.42 35.6708C46.574 36.8428 44.419 37.4288 41.957 37.4288ZM41.957 33.6648C43.827 33.6648 45.366 33.1858 46.574 32.2268C47.781 31.2678 48.675 30.0068 49.255 28.4448C49.835 26.8818 50.125 25.1898 50.125 23.3668C50.125 21.5438 49.835 19.8448 49.255 18.2708C48.675 16.6958 47.781 15.4238 46.574 14.4528C45.366 13.4828 43.827 12.9968 41.957 12.9968C40.087 12.9968 38.548 13.4828 37.341 14.4528C36.133 15.4238 35.239 16.6958 34.659 18.2708C34.079 19.8448 33.789 21.5438 33.789 23.3668C33.789 25.1898 34.079 26.8818 34.659 28.4448C35.239 30.0068 36.133 31.2678 37.341 32.2268C38.548 33.1858 40.087 33.6648 41.957 33.6648ZM65.963 36.8608L57.653 9.5878H62.056L67.951 30.4688H68.235L74.059 9.5878H78.534L84.287 30.3978H84.571L90.466 9.5878H94.869L86.559 36.8608H82.44L76.474 15.9088H76.048L70.082 36.8608H65.963ZM110.916 37.4288C108.288 37.4288 106.021 36.8488 104.115 35.6888C102.221 34.5168 100.759 32.8838 99.73 30.7888C98.712 28.6818 98.203 26.2308 98.203 23.4378C98.203 20.6438 98.712 18.1818 99.73 16.0508C100.759 13.9088 102.192 12.2398 104.026 11.0438C105.873 9.8368 108.027 9.2328 110.49 9.2328C111.91 9.2328 113.313 9.4698 114.698 9.9428C116.083 10.4168 117.343 11.1858 118.48 12.2518C119.616 13.3048 120.522 14.7018 121.196 16.4418C121.871 18.1818 122.208 20.3248 122.208 22.8698V24.6448H101.186V21.0228H117.947C117.947 19.4838 117.639 18.1108 117.024 16.9038C116.42 15.6958 115.556 14.7428 114.431 14.0448C113.319 13.3468 112.005 12.9968 110.49 12.9968C108.821 12.9968 107.376 13.4118 106.157 14.2398C104.95 15.0568 104.021 16.1218 103.37 17.4358C102.718 18.7498 102.393 20.1588 102.393 21.6618V24.0768C102.393 26.1368 102.748 27.8828 103.458 29.3148C104.18 30.7348 105.181 31.8178 106.459 32.5638C107.737 33.2978 109.223 33.6648 110.916 33.6648C112.017 33.6648 113.011 33.5108 113.899 33.2028C114.798 32.8838 115.574 32.4098 116.225 31.7828C116.876 31.1438 117.379 30.3508 117.734 29.4038L121.782 30.5398C121.356 31.9128 120.64 33.1198 119.634 34.1618C118.628 35.1918 117.385 35.9968 115.905 36.5768C114.425 37.1448 112.762 37.4288 110.916 37.4288ZM128.583 36.8608V9.5878H132.631V13.7078H132.915C133.412 12.3578 134.312 11.2628 135.614 10.4228C136.916 9.5818 138.384 9.1618 140.017 9.1618C140.325 9.1618 140.71 9.1678 141.171 9.1798C141.633 9.1918 141.982 9.2088 142.219 9.2328V13.4948C142.077 13.4588 141.751 13.4058 141.242 13.3348C140.745 13.2518 140.218 13.2098 139.662 13.2098C138.336 13.2098 137.153 13.4888 136.111 14.0448C135.081 14.5888 134.264 15.3468 133.661 16.3178C133.069 17.2758 132.773 18.3708 132.773 19.6018V36.8608H128.583ZM157.792 37.4288C155.162 37.4288 152.892 36.8488 150.992 35.6888C149.092 34.5168 147.634 32.8838 146.605 30.7888C145.587 28.6818 145.078 26.2308 145.078 23.4378C145.078 20.6438 145.587 18.1818 146.605 16.0508C147.634 13.9088 149.062 12.2398 150.902 11.0438C152.752 9.8368 154.902 9.2328 157.362 9.2328C158.782 9.2328 160.192 9.4698 161.572 9.9428C162.962 10.4168 164.222 11.1858 165.352 12.2518C166.492 13.3048 167.392 14.7018 168.072 16.4418C168.742 18.1818 169.082 20.3248 169.082 22.8698V24.6448H148.061V21.0228H164.822C164.822 19.4838 164.512 18.1108 163.902 16.9038C163.292 15.6958 162.432 14.7428 161.302 14.0448C160.192 13.3468 158.882 12.9968 157.362 12.9968C155.692 12.9968 154.252 13.4118 153.032 14.2398C151.822 15.0568 150.892 16.1218 150.242 17.4358C149.592 18.7498 149.272 20.1588 149.272 21.6618V24.0768C149.272 26.1368 149.622 27.8828 150.332 29.3148C151.052 30.7348 152.052 31.8178 153.332 32.5638C154.612 33.2978 156.102 33.6648 157.792 33.6648C158.892 33.6648 159.882 33.5108 160.772 33.2028C161.672 32.8838 162.452 32.4098 163.102 31.7828C163.752 31.1438 164.252 30.3508 164.612 29.4038L168.662 30.5398C168.232 31.9128 167.512 33.1198 166.512 34.1618C165.502 35.1918 164.262 35.9968 162.782 36.5768C161.302 37.1448 159.642 37.4288 157.792 37.4288ZM185.752 37.4288C183.482 37.4288 181.472 36.8548 179.732 35.7068C177.992 34.5468 176.632 32.9128 175.652 30.8058C174.672 28.6868 174.182 26.1838 174.182 23.2958C174.182 20.4308 174.672 17.9448 175.652 15.8378C176.632 13.7308 178.002 12.1038 179.752 10.9548C181.502 9.8068 183.532 9.2328 185.822 9.2328C187.602 9.2328 189.002 9.5288 190.032 10.1208C191.072 10.7008 191.872 11.3638 192.412 12.1098C192.972 12.8428 193.402 13.4468 193.712 13.9208H194.062V0.4972H198.252V36.8608H194.212V32.6708H193.712C193.402 33.1678 192.962 33.7948 192.392 34.5528C191.832 35.2978 191.022 35.9668 189.962 36.5588C188.912 37.1388 187.512 37.4288 185.752 37.4288ZM186.322 33.6648C188.002 33.6648 189.422 33.2268 190.582 32.3508C191.742 31.4628 192.632 30.2378 193.232 28.6758C193.832 27.1008 194.132 25.2838 194.132 23.2248C194.132 21.1888 193.842 19.4068 193.252 17.8798C192.652 16.3408 191.782 15.1458 190.622 14.2938C189.462 13.4288 188.032 12.9968 186.322 12.9968C184.552 12.9968 183.072 13.4528 181.882 14.3648C180.712 15.2638 179.832 16.4888 179.242 18.0398C178.662 19.5788 178.372 21.3068 178.372 23.2248C178.372 25.1658 178.662 26.9298 179.262 28.5158C179.862 30.0898 180.752 31.3448 181.922 32.2798C183.102 33.2028 184.572 33.6648 186.322 33.6648ZM221.142 36.8608V0.4972H225.332V13.9208H225.692C225.992 13.4468 226.422 12.8428 226.962 12.1098C227.522 11.3638 228.312 10.7008 229.342 10.1208C230.392 9.5288 231.792 9.2328 233.572 9.2328C235.872 9.2328 237.892 9.8068 239.642 10.9548C241.392 12.1038 242.762 13.7308 243.742 15.8378C244.732 17.9448 245.222 20.4308 245.222 23.2958C245.222 26.1838 244.732 28.6868 243.742 30.8058C242.762 32.9128 241.402 34.5468 239.662 35.7068C237.922 36.8548 235.912 37.4288 233.642 37.4288C231.892 37.4288 230.492 37.1388 229.432 36.5588C228.382 35.9668 227.572 35.2978 227.002 34.5528C226.432 33.7948 225.992 33.1678 225.692 32.6708H225.192V36.8608H221.142ZM225.262 23.2248C225.262 25.2838 225.562 27.1008 226.172 28.6758C226.772 30.2378 227.652 31.4628 228.812 32.3508C229.972 33.2268 231.392 33.6648 233.072 33.6648C234.822 33.6648 236.292 33.2028 237.462 32.2798C238.642 31.3448 239.532 30.0898 240.122 28.5158C240.732 26.9298 241.032 25.1658 241.032 23.2248C241.032 21.3068 240.732 19.5788 240.142 18.0398C239.562 16.4888 238.682 15.2638 237.492 14.3648C236.322 13.4528 234.852 12.9968 233.072 12.9968C231.372 12.9968 229.942 13.4288 228.782 14.2938C227.622 15.1458 226.742 16.3408 226.152 17.8798C225.562 19.4068 225.262 21.1888 225.262 23.2248ZM253.352 47.0878C252.642 47.0878 252.012 47.0288 251.452 46.9108C250.892 46.8038 250.512 46.6978 250.302 46.5908L251.362 42.8978C252.382 43.1578 253.282 43.2528 254.062 43.1818C254.842 43.1108 255.532 42.7618 256.142 42.1338C256.752 41.5188 257.322 40.5188 257.822 39.1338L258.612 37.0028L248.522 9.5878H253.072L260.592 31.3208H260.882L268.412 9.5878H272.952L261.382 40.8378C260.852 42.2468 260.212 43.4128 259.442 44.3358C258.672 45.2708 257.782 45.9638 256.762 46.4138C255.752 46.8628 254.622 47.0878 253.352 47.0878ZM313.002 9.5878C312.792 7.7888 311.922 6.3918 310.412 5.3978C308.892 4.4038 307.032 3.9058 304.832 3.9058C303.222 3.9058 301.812 4.16681 300.612 4.68781C299.412 5.20881 298.482 5.9248 297.802 6.8358C297.142 7.7478 296.812 8.7828 296.812 9.9428C296.812 10.9138 297.042 11.7488 297.502 12.4468C297.972 13.1328 298.582 13.7078 299.312 14.1688C300.042 14.6188 300.812 14.9918 301.622 15.2878C302.422 15.5718 303.162 15.8028 303.842 15.9798L307.532 16.9748C308.482 17.2228 309.532 17.5658 310.692 18.0038C311.862 18.4418 312.982 19.0398 314.052 19.7978C315.122 20.5438 316.012 21.5018 316.712 22.6738C317.412 23.8458 317.762 25.2838 317.762 26.9888C317.762 28.9538 317.242 30.7288 316.212 32.3158C315.202 33.9018 313.702 35.1618 311.742 36.0978C309.792 37.0328 307.412 37.4998 304.622 37.4998C302.022 37.4998 299.762 37.0798 297.852 36.2398C295.962 35.3988 294.472 34.2268 293.382 32.7238C292.302 31.2208 291.692 29.4748 291.552 27.4858H296.102C296.212 28.8588 296.682 29.9948 297.482 30.8948C298.302 31.7828 299.332 32.4458 300.572 32.8838C301.832 33.3098 303.182 33.5228 304.622 33.5228C306.302 33.5228 307.812 33.2508 309.152 32.7058C310.482 32.1498 311.542 31.3798 312.332 30.3978C313.112 29.4038 313.502 28.2438 313.502 26.9178C313.502 25.7098 313.162 24.7278 312.492 23.9698C311.812 23.2128 310.922 22.5968 309.822 22.1238C308.722 21.6498 307.532 21.2358 306.252 20.8808L301.782 19.6018C298.942 18.7858 296.692 17.6198 295.032 16.1048C293.372 14.5888 292.552 12.6068 292.552 10.1558C292.552 8.1198 293.102 6.3448 294.202 4.8298C295.312 3.3026 296.802 2.1188 298.672 1.2784C300.552 0.426104 302.652 0 304.972 0C307.322 0 309.402 0.420204 311.222 1.2607C313.052 2.0893 314.492 3.2256 315.562 4.6698C316.632 6.1138 317.202 7.7538 317.262 9.5878H313.002ZM338.212 25.4968H343.042L347.092 30.8238L348.152 32.2448L354.192 40.2698H349.362L345.382 34.9428L344.392 33.5938L338.212 25.4968ZM355.682 18.6788C355.682 22.5138 354.992 25.8288 353.602 28.6218C352.222 31.4158 350.322 33.5698 347.902 35.0848C345.492 36.6008 342.732 37.3578 339.632 37.3578C336.532 37.3578 333.772 36.6008 331.352 35.0848C328.942 33.5698 327.042 31.4158 325.662 28.6218C324.272 25.8288 323.582 22.5138 323.582 18.6788C323.582 14.8438 324.272 11.5298 325.662 8.7358C327.042 5.9418 328.942 3.78791 331.352 2.27271C333.772 0.757605 336.532 0 339.632 0C342.732 0 345.492 0.757605 347.902 2.27271C350.322 3.78791 352.222 5.9418 353.602 8.7358C354.992 11.5298 355.682 14.8438 355.682 18.6788ZM351.422 18.6788C351.422 15.5308 350.892 12.8728 349.842 10.7068C348.802 8.5408 347.382 6.9008 345.592 5.7888C343.822 4.6758 341.832 4.1198 339.632 4.1198C337.432 4.1198 335.432 4.6758 333.652 5.7888C331.872 6.9008 330.462 8.5408 329.402 10.7068C328.362 12.8728 327.842 15.5308 327.842 18.6788C327.842 21.8278 328.362 24.4848 329.402 26.6508C330.462 28.8178 331.872 30.4568 333.652 31.5698C335.432 32.6818 337.432 33.2388 339.632 33.2388C341.832 33.2388 343.822 32.6818 345.592 31.5698C347.382 30.4568 348.802 28.8178 349.842 26.6508C350.892 24.4848 351.422 21.8278 351.422 18.6788ZM374.312 36.8608H363.082V0.4972H374.802C378.332 0.4972 381.352 1.2251 383.862 2.6811C386.372 4.1248 388.292 6.2028 389.632 8.9138C390.972 11.6118 391.642 14.8438 391.642 18.6078C391.642 22.3958 390.962 25.6568 389.612 28.3918C388.262 31.1138 386.302 33.2088 383.722 34.6768C381.142 36.1328 378.002 36.8608 374.312 36.8608ZM367.492 32.9548H374.022C377.032 32.9548 379.522 32.3748 381.502 31.2148C383.472 30.0548 384.952 28.4028 385.922 26.2608C386.892 24.1178 387.372 21.5668 387.372 18.6078C387.372 15.6728 386.892 13.1448 385.942 11.0258C384.982 8.8958 383.542 7.2618 381.642 6.1258C379.732 4.9778 377.362 4.4038 374.522 4.4038H367.492V32.9548ZM441.922 0.4972V36.8608H437.662L417.842 8.3098H417.492V36.8608H413.082V0.4972H417.352L437.232 29.1198H437.592V0.4972H441.922ZM461.602 37.4288C458.972 37.4288 456.702 36.8488 454.802 35.6888C452.902 34.5168 451.442 32.8838 450.412 30.7888C449.392 28.6818 448.882 26.2308 448.882 23.4378C448.882 20.6438 449.392 18.1818 450.412 16.0508C451.442 13.9088 452.872 12.2398 454.712 11.0438C456.552 9.8368 458.712 9.2328 461.172 9.2328C462.592 9.2328 463.992 9.4698 465.382 9.9428C466.762 10.4168 468.022 11.1858 469.162 12.2518C470.302 13.3048 471.202 14.7018 471.882 16.4418C472.552 18.1818 472.892 20.3248 472.892 22.8698V24.6448H451.872V21.0228H468.632C468.632 19.4838 468.322 18.1108 467.712 16.9038C467.102 15.6958 466.242 14.7428 465.112 14.0448C464.002 13.3468 462.692 12.9968 461.172 12.9968C459.502 12.9968 458.062 13.4118 456.842 14.2398C455.632 15.0568 454.702 16.1218 454.052 17.4358C453.402 18.7498 453.072 20.1588 453.072 21.6618V24.0768C453.072 26.1368 453.432 27.8828 454.142 29.3148C454.862 30.7348 455.862 31.8178 457.142 32.5638C458.422 33.2978 459.902 33.6648 461.602 33.6648C462.702 33.6648 463.692 33.5108 464.582 33.2028C465.482 32.8838 466.262 32.4098 466.912 31.7828C467.562 31.1438 468.062 30.3508 468.422 29.4038L472.462 30.5398C472.042 31.9128 471.322 33.1198 470.322 34.1618C469.312 35.1918 468.072 35.9968 466.592 36.5768C465.112 37.1448 463.442 37.4288 461.602 37.4288ZM491.122 9.5878V13.1388H476.992V9.5878H491.122ZM481.112 3.054H485.302V29.0488C485.302 30.2318 485.472 31.1198 485.822 31.7118C486.172 32.2918 486.622 32.6818 487.172 32.8838C487.722 33.0728 488.312 33.1678 488.922 33.1678C489.382 33.1678 489.762 33.1438 490.062 33.0968C490.362 33.0378 490.592 32.9898 490.772 32.9548L491.622 36.7188C491.342 36.8248 490.942 36.9318 490.432 37.0388C489.922 37.1568 489.282 37.2158 488.502 37.2158C487.312 37.2158 486.152 36.9618 485.022 36.4528C483.892 35.9438 482.962 35.1678 482.212 34.1268C481.482 33.0848 481.112 31.7708 481.112 30.1848V3.054ZM503.612 36.8608L495.302 9.5878H499.702L505.602 30.4688H505.882L511.702 9.5878H516.182L521.932 30.3978H522.222L528.112 9.5878H532.512L524.202 36.8608H520.082L514.122 15.9088H513.692L507.732 36.8608H503.612ZM548.212 37.4288C545.742 37.4288 543.582 36.8428 541.722 35.6708C539.882 34.4988 538.432 32.8598 537.392 30.7528C536.362 28.6458 535.852 26.1838 535.852 23.3668C535.852 20.5258 536.362 18.0458 537.392 15.9268C538.432 13.8078 539.882 12.1628 541.722 10.9908C543.582 9.8188 545.742 9.2328 548.212 9.2328C550.672 9.2328 552.822 9.8188 554.672 10.9908C556.532 12.1628 557.972 13.8078 559.002 15.9268C560.042 18.0458 560.562 20.5258 560.562 23.3668C560.562 26.1838 560.042 28.6458 559.002 30.7528C557.972 32.8598 556.532 34.4988 554.672 35.6708C552.822 36.8428 550.672 37.4288 548.212 37.4288ZM548.212 33.6648C550.082 33.6648 551.612 33.1858 552.822 32.2268C554.032 31.2678 554.922 30.0068 555.502 28.4448C556.082 26.8818 556.372 25.1898 556.372 23.3668C556.372 21.5438 556.082 19.8448 555.502 18.2708C554.922 16.6958 554.032 15.4238 552.822 14.4528C551.612 13.4828 550.082 12.9968 548.212 12.9968C546.332 12.9968 544.802 13.4828 543.592 14.4528C542.382 15.4238 541.492 16.6958 540.912 18.2708C540.332 19.8448 540.042 21.5438 540.042 23.3668C540.042 25.1898 540.332 26.8818 540.912 28.4448C541.492 30.0068 542.382 31.2678 543.592 32.2268C544.802 33.1858 546.332 33.6648 548.212 33.6648ZM566.962 36.8608V9.5878H571.012V13.7078H571.292C571.792 12.3578 572.692 11.2628 573.992 10.4228C575.292 9.5818 576.762 9.1618 578.392 9.1618C578.702 9.1618 579.092 9.1678 579.552 9.1798C580.012 9.1918 580.362 9.2088 580.602 9.2328V13.4948C580.452 13.4588 580.132 13.4058 579.622 13.3348C579.122 13.2518 578.602 13.2098 578.042 13.2098C576.712 13.2098 575.532 13.4888 574.492 14.0448C573.462 14.5888 572.642 15.3468 572.042 16.3178C571.452 17.2758 571.152 18.3708 571.152 19.6018V36.8608H566.962ZM589.472 26.9178L589.402 21.7328H590.252L602.182 9.5878H607.372L594.652 22.4428H594.302L589.472 26.9178ZM585.562 36.8608V0.4972H589.752V36.8608H585.562ZM602.892 36.8608L592.242 23.3668L595.222 20.4548L608.222 36.8608H602.892Z" fill="white"/>
</svg>
